<?xml version="1.0" encoding="utf-8"?>
<!-- Generator: Adobe Illustrator 15.1.0, SVG Export Plug-In . SVG Version: 6.00 Build 0)  -->
<!DOCTYPE svg PUBLIC "-//W3C//DTD SVG 1.1//EN" "http://www.w3.org/Graphics/SVG/1.1/DTD/svg11.dtd">
<svg version="1.1" id="Camada_1" xmlns="http://www.w3.org/2000/svg" xmlns:xlink="http://www.w3.org/1999/xlink" x="0px" y="0px"
	 width="381.846px" height="348.333px" viewBox="0 0 381.846 348.333" enable-background="new 0 0 381.846 348.333"
	 xml:space="preserve">
<polygon fill="#C3488F" stroke="#C03A8A" stroke-width="1.5" stroke-linejoin="round" stroke-miterlimit="10" points="
	79.708,196.72 135.982,176.569 135.982,223.201 70.763,241.093 "/>
<polygon fill="#6F226D" stroke="#000000" stroke-width="1.5" stroke-linejoin="round" stroke-miterlimit="10" points="
	87.683,118.932 133.616,102.487 124.653,146.855 73.132,160.991 "/>
<polygon fill="#6F226D" stroke="#000000" stroke-width="1.5" stroke-linejoin="round" stroke-miterlimit="10" points="
	49.394,132.642 87.592,118.967 73.025,161.019 31.294,172.468 "/>
<polygon fill="#565F64" stroke="#1C9EBD" stroke-width="1.5" stroke-linejoin="round" stroke-miterlimit="10" points="
	140.415,68.812 190.016,47.998 190.02,82.3 133.612,102.497 "/>
<polygon fill="#6F226D" stroke="#000000" stroke-width="1.5" stroke-linejoin="round" stroke-miterlimit="10" points="
	99.205,86.153 140.601,68.784 133.802,102.45 87.876,118.895 "/>
<polygon fill="#6F226D" stroke="#000000" stroke-width="1.5" stroke-linejoin="round" stroke-miterlimit="10" points="
	63.792,100.962 98.933,86.217 87.595,118.956 49.399,132.632 "/>
<polygon fill="#D99BC1" stroke="#000000" stroke-width="1.5" stroke-linejoin="round" stroke-miterlimit="10" points="
	195.553,232.192 242.148,256.361 242.132,225.545 189.923,201.199 "/>
<polygon fill="#BF0411" stroke="#000000" stroke-width="1.5" stroke-linejoin="round" stroke-miterlimit="10" points="
	150.892,287.108 190.635,307.724 185.002,276.737 141.319,256.364 "/>
<polygon fill="#6F226D" stroke="#000000" stroke-width="1.5" stroke-linejoin="round" stroke-miterlimit="10" points="
	75.514,75.167 108.011,60 98.933,86.21 63.795,100.955 "/>
<polygon fill="#FEEE00" stroke="#000000" stroke-width="1.5" stroke-linejoin="round" stroke-miterlimit="10" points="
	292.25,118.896 330.466,132.579 348.556,172.412 306.791,160.953 "/>
<polygon fill="#FEEE00" stroke="#000000" stroke-width="1.5" stroke-linejoin="round" stroke-miterlimit="10" points="
	246.294,102.448 292.237,118.897 306.782,160.96 255.24,146.817 "/>
<polygon fill="#C3488F" stroke="#C03A8A" stroke-width="1.5" stroke-linejoin="round" stroke-miterlimit="10" points="
	247.483,175.008 303.753,195.156 312.693,239.526 247.483,221.634 "/>
<polygon fill="#FEEE00" stroke="#000000" stroke-width="1.5" stroke-linejoin="round" stroke-miterlimit="10" points="
	280.926,86.148 316.086,100.902 330.466,132.575 292.252,118.889 "/>
<polygon fill="#FEEE00" stroke="#000000" stroke-width="1.5" stroke-linejoin="round" stroke-miterlimit="10" points="
	239.563,68.784 280.961,86.156 292.285,118.893 246.356,102.446 "/>
<polygon fill="#565F64" stroke="#1C9EBD" stroke-width="1.5" stroke-linejoin="round" stroke-miterlimit="10" points="
	190.02,48.005 239.501,68.767 246.292,102.434 190.023,82.285 "/>
<polygon fill="#FEEE00" stroke="#000000" stroke-width="1.5" stroke-linejoin="round" stroke-miterlimit="10" points="
	271.918,59.928 304.417,75.102 316.126,100.88 280.984,86.13 "/>
<polygon fill="#FEEE00" stroke="#000000" stroke-width="1.5" stroke-linejoin="round" stroke-miterlimit="10" points="
	191.375,307.729 231.113,287.118 240.699,256.361 197.02,276.722 "/>
<polygon fill="#CE79AA" stroke="#000000" stroke-width="1.5" stroke-linejoin="round" stroke-miterlimit="10" points="
	139.871,256.354 186.452,232.187 192.083,201.205 139.886,225.549 "/>
<polygon fill="#4AA7C2" stroke="#000000" stroke-width="1.5" stroke-linejoin="round" stroke-miterlimit="10" points="
	242.864,172.415 306.791,160.956 348.556,172.415 286.55,181.89 "/>
<polygon fill="#55A595" stroke="#000000" stroke-width="1.5" stroke-linejoin="round" stroke-miterlimit="10" points="
	243.544,260.313 312.693,282.287 381.846,260.313 312.693,241.584 "/>
<polygon fill="#4AA7C2" stroke="#000000" stroke-width="1.5" stroke-linejoin="round" stroke-miterlimit="10" points="
	190.002,160.963 255.222,146.822 306.768,160.965 242.848,172.423 "/>
<polygon fill="#55A595" stroke="#000000" stroke-width="1.5" stroke-linejoin="round" stroke-miterlimit="10" points="
	96.283,326.443 189.941,308.188 283.568,326.443 189.905,341.538 "/>
<polygon fill="#00529C" stroke="#000000" stroke-width="1.5" stroke-linejoin="round" stroke-miterlimit="10" points="
	99.563,110.082 141.38,101.052 191.971,110.082 149.449,117.671 "/>
<polygon fill="#4AA7C2" stroke="#000000" stroke-width="1.5" stroke-linejoin="round" stroke-miterlimit="10" points="
	73.306,160.926 124.878,146.772 190.108,160.926 137.238,172.39 "/>
<polygon fill="#4AA7C2" stroke="#000000" stroke-width="1.5" stroke-linejoin="round" stroke-miterlimit="10" points="
	31.433,172.414 73.198,160.953 137.126,172.414 93.439,181.89 "/>
<polygon points="141.011,129.327 191.685,161.329 242.212,129.33 191.611,111.525 "/>
<polygon points="203.461,201.44 244.407,224.414 244.372,178.313 187.667,159.58 "/>
<polygon points="136.848,224.085 178.294,201.532 195.107,159.91 138.171,178.11 "/>
<linearGradient id="SVGID_1_" gradientUnits="userSpaceOnUse" x1="120.1504" y1="241.584" x2="121.3311" y2="241.584">
	<stop  offset="0" style="stop-color:#A1623A"/>
	<stop  offset="0.0307" style="stop-color:#A66943"/>
	<stop  offset="0.1557" style="stop-color:#BB8A6A"/>
	<stop  offset="0.2849" style="stop-color:#D0AD91"/>
	<stop  offset="0.4165" style="stop-color:#E1CCBA"/>
	<stop  offset="0.5511" style="stop-color:#EFE5DB"/>
	<stop  offset="0.6899" style="stop-color:#FAF6F1"/>
	<stop  offset="0.8358" style="stop-color:#FEFEFD"/>
	<stop  offset="1" style="stop-color:#FFFFFF"/>
</linearGradient>
<rect x="120.15" y="241.584" fill="url(#SVGID_1_)" width="1.181" height="0"/>
<linearGradient id="SVGID_2_" gradientUnits="userSpaceOnUse" x1="94.1401" y1="241.584" x2="120.1504" y2="241.584">
	<stop  offset="0" style="stop-color:#A1623A"/>
	<stop  offset="0.0307" style="stop-color:#A66943"/>
	<stop  offset="0.1557" style="stop-color:#BB8A6A"/>
	<stop  offset="0.2849" style="stop-color:#D0AD91"/>
	<stop  offset="0.4165" style="stop-color:#E1CCBA"/>
	<stop  offset="0.5511" style="stop-color:#EFE5DB"/>
	<stop  offset="0.6899" style="stop-color:#FAF6F1"/>
	<stop  offset="0.8358" style="stop-color:#FEFEFD"/>
	<stop  offset="1" style="stop-color:#FFFFFF"/>
</linearGradient>
<rect x="94.14" y="241.584" fill="url(#SVGID_2_)" width="26.01" height="0"/>
<rect x="114.24" y="236.706" fill="#035C47" width="0" height="4.878"/>
<polygon fill="#00529C" stroke="#000000" stroke-width="1.5" stroke-linejoin="round" stroke-miterlimit="10" points="
	198.248,110.082 240.065,101.052 290.655,110.082 248.133,117.671 "/>
<polygon fill="#55A595" stroke="#000000" stroke-width="1.5" stroke-linejoin="round" stroke-miterlimit="10" points="0,259.735 
	68.819,280.722 137.647,259.737 68.824,243.151 "/>
<text transform="matrix(0.8551 0 0 1 87.5923 25.2622)" font-family="'DejaVuSerif'" font-size="18.6745">LOS   HERMANOS L.T.D.A</text>
</svg>
